<svg class="grin" viewBox="0 0 560 560" xmlns="http://www.w3.org/2000/svg">
    <g>
        <g fill="currentColor">
            <path d="m133.8 381.2c20.1 15.7 43 28.3 67.8 36.9l6.2-87.9c-23.1-5.3-45-13.2-65.1-23.1z"/>
            <path d="m278 338.4c-22-.2-44.1-2.6-65-7.1l-6.3 88.4c22.5 7.2 46.3 11.3 71.3 11.4z"/>
            <path d="m74.9 312.5c13.7 24.7 32.1 46.6 54.1 64.7l8.7-72.8c-19.4-10.1-36.9-22.2-51.9-36z"/>
            <path d="m427.8 380.9-8.9-73.9c-20.1 9.9-42 17.8-65.2 23.1l6.3 87.7c24.9-8.6 47.8-21.1 67.8-36.9z"/>
            <path d="m490.1 304.3c11.8-24.2 19.2-50.8 21.2-79-8.3 14-18.7 27-31 38.9z"/>
            <path d="m505 365.4c10.1-26.6 15.7-55.3 15.7-85.4 0-16.4-1.7-32.7-4.9-48.6-2.8 28.7-11 55.8-23.8 80.2z"/>
            <path d="m284 431.1c24-.3 48.7-4.4 71.1-11.6l-6.2-88.3c-20.9 4.5-42.8 6.9-64.8 7.1v92.8z"/>
            <path d="m123.5 462.6c21.2 18.2 45.5 32.7 72 42.7l5.8-82.3c-24.8-8.5-47.8-20.8-68.2-36.3l-9.1 75.9z"/>
            <path d="m69.4 312.6c-13.4-24.9-22.1-52.4-25-81.4-3.3 16-5 32.3-5 48.8 0 30.8 5.8 60.2 16.4 87.3z"/>
            <path d="m128.3 382.9c-22.2-17.8-40.9-39.3-55.1-63.5l-13.9 56.2c13.9 31.9 34.4 60.2 59.9 83.2z"/>
            <path d="m71.1 305.5 10.2-41.2c-13.1-12.8-24.2-26.9-32.8-42.1 1.7 29.6 9.7 57.8 22.6 83.3z"/>
            <path d="m501.5 373.7-13.4-55.2c-14 24.6-32.6 46.3-54.8 64.3l9 74.7c25.3-23.2 45.7-51.7 59.3-83.8z"/>
            <path d="m428.5 386.7c-20.2 15.5-43.2 27.8-68.1 36.3l5.9 81.7c26.3-10.1 50.4-24.7 71.3-42.9z"/>
            <path d="m486.4 311.5-10.5-43.2c-15.1 13.8-32.6 26-52 36.1l8.8 72.6c22-18.2 40.3-40.4 53.7-65.5z"/>
            <path d="m355.4 424.6c-22.6 7.1-46.4 11.1-71.4 11.4v84.6c27-.4 53.2-5.3 77.5-14z"/>
            <path d="m278 436c-25-.2-49-4.2-71.6-11.3l-5.8 82.5c24.3 8.5 50.4 13.2 77.4 13.4z"/>
            <path d="m280 10.2c-149 0-269.8 120.8-269.8 269.8s120.8 269.8 269.8 269.8 269.8-120.8 269.8-269.8-120.8-269.8-269.8-269.8zm164.1 117.9-19.6 24.5c-5 6.2-10.7 11.9-17 16.7-.7.5-25.9 17.4-41.1 27.6 9.8 9 16.4 25 16.4 43.4 0 28.2-15.4 51-34.4 51s-34.4-22.8-34.4-51c0-8.4 1.4-16.3 3.8-23.4l-1.2.4h-28.1zm-176.2 89.3h-28.1l-1.3-.4c2.4 7 3.9 15 3.9 23.4 0 28.2-15.4 51-34.4 51s-34.4-22.8-34.4-51c0-18.4 6.6-34.5 16.5-43.5-15.3-10.2-40.4-27-41.1-27.5-6.3-4.9-12-10.5-17-16.7l-19.6-24.5zm12.1 313.9c-138.5 0-251.2-112.8-251.2-251.3 0-23.1 3.1-45.9 9.3-68l2.5-8.6 3.9-13.3 6 12.5 3.2 6.7c35.1 70.9 126.4 118.6 227.1 118.6 100.1 0 191-47 226.4-117.1l3.1-6.1 6.2-12.2 3.7 13.2 1.8 6.6c6.2 22 9.3 44.8 9.3 67.9 0 138.3-112.7 251.1-251.3 251.1z"/>
        </g>
    </g>
</svg>
